<mxfile host="Electron" agent="Mozilla/5.0 (Windows NT 10.0; Win64; x64) AppleWebKit/537.36 (KHTML, like Gecko) draw.io/27.0.5 Chrome/134.0.6998.205 Electron/35.3.0 Safari/537.36" version="27.0.5">
  <diagram id="C5RBs43oDa-KdzZeNtuy" name="Page-1">
    <mxGraphModel dx="-222" dy="569" grid="1" gridSize="10" guides="1" tooltips="1" connect="1" arrows="1" fold="1" page="1" pageScale="1" pageWidth="1169" pageHeight="827" math="0" shadow="0">
      <root>
        <mxCell id="WIyWlLk6GJQsqaUBKTNV-0" />
        <mxCell id="WIyWlLk6GJQsqaUBKTNV-1" parent="WIyWlLk6GJQsqaUBKTNV-0" />
        <mxCell id="6fleU-jqkwWg-XRkz1PE-0" value="" style="rounded=0;whiteSpace=wrap;html=1;fontStyle=1;fillColor=#d5e8d4;strokeColor=#82b366;" parent="WIyWlLk6GJQsqaUBKTNV-1" vertex="1">
          <mxGeometry x="1705.1200000000001" y="83.13" width="160" height="80" as="geometry" />
        </mxCell>
        <mxCell id="6fleU-jqkwWg-XRkz1PE-1" value="&lt;span&gt;Client&lt;/span&gt;" style="text;html=1;align=center;verticalAlign=middle;whiteSpace=wrap;rounded=0;fontStyle=1" parent="WIyWlLk6GJQsqaUBKTNV-1" vertex="1">
          <mxGeometry x="1740.1200000000001" y="100.63" width="90" height="45" as="geometry" />
        </mxCell>
        <mxCell id="6fleU-jqkwWg-XRkz1PE-4" value="" style="rounded=0;whiteSpace=wrap;html=1;fontStyle=1;fillColor=#d5e8d4;strokeColor=#82b366;" parent="WIyWlLk6GJQsqaUBKTNV-1" vertex="1">
          <mxGeometry x="3000.37" y="1601.5999999999995" width="160" height="80" as="geometry" />
        </mxCell>
        <mxCell id="6fleU-jqkwWg-XRkz1PE-5" value="&lt;span&gt;Employee&lt;/span&gt;" style="text;html=1;align=center;verticalAlign=middle;whiteSpace=wrap;rounded=0;fontStyle=1" parent="WIyWlLk6GJQsqaUBKTNV-1" vertex="1">
          <mxGeometry x="3035.3700000000003" y="1619.0999999999995" width="90" height="45" as="geometry" />
        </mxCell>
        <mxCell id="6fleU-jqkwWg-XRkz1PE-13" value="" style="rounded=0;whiteSpace=wrap;html=1;fontStyle=1;fillColor=#d5e8d4;strokeColor=#82b366;" parent="WIyWlLk6GJQsqaUBKTNV-1" vertex="1">
          <mxGeometry x="2008.6200000000001" y="446.38" width="160" height="80" as="geometry" />
        </mxCell>
        <mxCell id="6fleU-jqkwWg-XRkz1PE-14" value="&lt;span&gt;Outgoing Invoice&lt;/span&gt;" style="text;html=1;align=center;verticalAlign=middle;whiteSpace=wrap;rounded=0;fontStyle=1" parent="WIyWlLk6GJQsqaUBKTNV-1" vertex="1">
          <mxGeometry x="2045.6200000000001" y="463.88" width="90" height="45" as="geometry" />
        </mxCell>
        <mxCell id="6fleU-jqkwWg-XRkz1PE-23" style="edgeStyle=orthogonalEdgeStyle;rounded=0;orthogonalLoop=1;jettySize=auto;html=1;endArrow=classic;endFill=1;fontStyle=1;startFill=0;" parent="WIyWlLk6GJQsqaUBKTNV-1" edge="1">
          <mxGeometry relative="1" as="geometry">
            <mxPoint x="1749.6200000000001" y="446.38" as="targetPoint" />
            <mxPoint x="1749.6200000000001" y="326.13" as="sourcePoint" />
          </mxGeometry>
        </mxCell>
        <mxCell id="6fleU-jqkwWg-XRkz1PE-24" value="" style="rounded=0;whiteSpace=wrap;html=1;fontStyle=1" parent="WIyWlLk6GJQsqaUBKTNV-1" vertex="1">
          <mxGeometry x="1672.6200000000001" y="446.38" width="160" height="80" as="geometry" />
        </mxCell>
        <mxCell id="6fleU-jqkwWg-XRkz1PE-25" value="&lt;span&gt;Incoming Invoice&lt;/span&gt;" style="text;html=1;align=center;verticalAlign=middle;whiteSpace=wrap;rounded=0;fontStyle=1" parent="WIyWlLk6GJQsqaUBKTNV-1" vertex="1">
          <mxGeometry x="1706.6200000000001" y="471.38" width="90" height="37.5" as="geometry" />
        </mxCell>
        <mxCell id="6fleU-jqkwWg-XRkz1PE-32" value="" style="rounded=0;whiteSpace=wrap;html=1;fontStyle=1;" parent="WIyWlLk6GJQsqaUBKTNV-1" vertex="1">
          <mxGeometry x="1979.5000000000002" y="2306.0999999999995" width="160" height="80" as="geometry" />
        </mxCell>
        <mxCell id="6fleU-jqkwWg-XRkz1PE-33" value="&lt;span&gt;Vehicle&lt;/span&gt;" style="text;html=1;align=center;verticalAlign=middle;whiteSpace=wrap;rounded=0;fontStyle=1" parent="WIyWlLk6GJQsqaUBKTNV-1" vertex="1">
          <mxGeometry x="2013.3800000000003" y="2325.0999999999995" width="90" height="45" as="geometry" />
        </mxCell>
        <mxCell id="6fleU-jqkwWg-XRkz1PE-47" value="TravelExpenses" style="rounded=0;whiteSpace=wrap;html=1;fontStyle=1" parent="WIyWlLk6GJQsqaUBKTNV-1" vertex="1">
          <mxGeometry x="2999.04" y="1366.75" width="160" height="80" as="geometry" />
        </mxCell>
        <mxCell id="6fleU-jqkwWg-XRkz1PE-91" value="&lt;span&gt;(1,1)&lt;/span&gt;" style="text;html=1;align=center;verticalAlign=middle;resizable=0;points=[];autosize=1;strokeColor=none;fillColor=none;fontStyle=1" parent="WIyWlLk6GJQsqaUBKTNV-1" vertex="1">
          <mxGeometry x="1746.6200000000001" y="416.3800000000001" width="50" height="30" as="geometry" />
        </mxCell>
        <mxCell id="6fleU-jqkwWg-XRkz1PE-92" value="&lt;span&gt;(1,N)&lt;/span&gt;" style="text;html=1;align=center;verticalAlign=middle;resizable=0;points=[];autosize=1;strokeColor=none;fillColor=none;fontStyle=1" parent="WIyWlLk6GJQsqaUBKTNV-1" vertex="1">
          <mxGeometry x="1746.6200000000001" y="160.89" width="50" height="30" as="geometry" />
        </mxCell>
        <mxCell id="6fleU-jqkwWg-XRkz1PE-93" value="&lt;span&gt;(1,1)&lt;/span&gt;" style="text;html=1;align=center;verticalAlign=middle;resizable=0;points=[];autosize=1;strokeColor=none;fillColor=none;fontStyle=1" parent="WIyWlLk6GJQsqaUBKTNV-1" vertex="1">
          <mxGeometry x="2035.6200000000001" y="419.2600000000001" width="50" height="30" as="geometry" />
        </mxCell>
        <mxCell id="6fleU-jqkwWg-XRkz1PE-96" value="" style="endArrow=none;html=1;rounded=0;fontStyle=1" parent="WIyWlLk6GJQsqaUBKTNV-1" edge="1">
          <mxGeometry width="50" height="50" relative="1" as="geometry">
            <mxPoint x="2083.62" y="334.9" as="sourcePoint" />
            <mxPoint x="2083.62" y="116.63999999999999" as="targetPoint" />
          </mxGeometry>
        </mxCell>
        <mxCell id="6fleU-jqkwWg-XRkz1PE-97" style="edgeStyle=orthogonalEdgeStyle;rounded=0;orthogonalLoop=1;jettySize=auto;html=1;endArrow=classic;endFill=1;fontStyle=1;exitX=0.5;exitY=1;exitDx=0;exitDy=0;startFill=0;" parent="WIyWlLk6GJQsqaUBKTNV-1" edge="1">
          <mxGeometry relative="1" as="geometry">
            <mxPoint x="2083.62" y="445.94999999999993" as="targetPoint" />
            <mxPoint x="2083.62" y="326.82000000000005" as="sourcePoint" />
          </mxGeometry>
        </mxCell>
        <mxCell id="6fleU-jqkwWg-XRkz1PE-98" value="&lt;span&gt;(1,N)&lt;/span&gt;" style="text;html=1;align=center;verticalAlign=middle;resizable=0;points=[];autosize=1;strokeColor=none;fillColor=none;fontStyle=1" parent="WIyWlLk6GJQsqaUBKTNV-1" vertex="1">
          <mxGeometry x="1855.1200000000001" y="118.88999999999999" width="50" height="30" as="geometry" />
        </mxCell>
        <mxCell id="6fleU-jqkwWg-XRkz1PE-134" value="" style="endArrow=none;html=1;rounded=0;fontStyle=1;endFill=1;startFill=0;" parent="WIyWlLk6GJQsqaUBKTNV-1" edge="1">
          <mxGeometry width="50" height="50" relative="1" as="geometry">
            <mxPoint x="1749.6200000000001" y="334.9" as="sourcePoint" />
            <mxPoint x="1749.3200000000002" y="164.13" as="targetPoint" />
          </mxGeometry>
        </mxCell>
        <mxCell id="6fleU-jqkwWg-XRkz1PE-135" value="" style="endArrow=none;html=1;rounded=0;fontStyle=1;endFill=1;entryX=1.016;entryY=0.416;entryDx=0;entryDy=0;entryPerimeter=0;startArrow=none;startFill=0;" parent="WIyWlLk6GJQsqaUBKTNV-1" edge="1">
          <mxGeometry width="50" height="50" relative="1" as="geometry">
            <mxPoint x="2083.62" y="115.94999999999993" as="sourcePoint" />
            <mxPoint x="1866.68" y="116.40999999999997" as="targetPoint" />
            <Array as="points" />
          </mxGeometry>
        </mxCell>
        <mxCell id="KJzYNLKTrp_ooMd6hEDH-20" value="" style="endArrow=classic;html=1;rounded=0;fontStyle=1;endFill=1;startFill=0;exitX=0.998;exitY=0.261;exitDx=0;exitDy=0;exitPerimeter=0;" parent="WIyWlLk6GJQsqaUBKTNV-1" edge="1">
          <mxGeometry width="50" height="50" relative="1" as="geometry">
            <mxPoint x="2088.52" y="527.9599999999999" as="sourcePoint" />
            <mxPoint x="2088.62" y="720" as="targetPoint" />
          </mxGeometry>
        </mxCell>
        <mxCell id="KJzYNLKTrp_ooMd6hEDH-23" value="Service" style="rounded=0;whiteSpace=wrap;html=1;fontStyle=1;fillColor=#d5e8d4;strokeColor=#82b366;" parent="WIyWlLk6GJQsqaUBKTNV-1" vertex="1">
          <mxGeometry x="2019.1200000000001" y="979.1000000000001" width="160" height="80" as="geometry" />
        </mxCell>
        <mxCell id="KJzYNLKTrp_ooMd6hEDH-26" value="&lt;span&gt;(1,N)&lt;/span&gt;" style="text;html=1;align=center;verticalAlign=middle;resizable=0;points=[];autosize=1;strokeColor=none;fillColor=none;fontStyle=1" parent="WIyWlLk6GJQsqaUBKTNV-1" vertex="1">
          <mxGeometry x="2038.6200000000001" y="521.13" width="50" height="30" as="geometry" />
        </mxCell>
        <mxCell id="KJzYNLKTrp_ooMd6hEDH-133" value="Inspection" style="rounded=0;whiteSpace=wrap;html=1;fontStyle=1;fillColor=#d5e8d4;strokeColor=#82b366;" parent="WIyWlLk6GJQsqaUBKTNV-1" vertex="1">
          <mxGeometry x="2531.1200000000003" y="2307.9999999999995" width="160" height="80" as="geometry" />
        </mxCell>
        <mxCell id="JLQM5sAZSnSmbtlJIYIe-23" value="Truck" style="rounded=0;whiteSpace=wrap;html=1;fontStyle=1;fillColor=#d5e8d4;strokeColor=#82b366;" parent="WIyWlLk6GJQsqaUBKTNV-1" vertex="1">
          <mxGeometry x="2267.12" y="1777.4" width="160" height="80" as="geometry" />
        </mxCell>
        <mxCell id="JLQM5sAZSnSmbtlJIYIe-24" value="Trailer" style="rounded=0;whiteSpace=wrap;html=1;fontStyle=1;fillColor=#d5e8d4;strokeColor=#82b366;" parent="WIyWlLk6GJQsqaUBKTNV-1" vertex="1">
          <mxGeometry x="2008.6200000000001" y="1777.4" width="160" height="80" as="geometry" />
        </mxCell>
        <mxCell id="JLQM5sAZSnSmbtlJIYIe-49" value="&lt;span&gt;(1,N)&lt;/span&gt;" style="text;html=1;align=center;verticalAlign=middle;resizable=0;points=[];autosize=1;strokeColor=none;fillColor=none;fontStyle=1" parent="WIyWlLk6GJQsqaUBKTNV-1" vertex="1">
          <mxGeometry x="2040.5000000000002" y="949.0999999999999" width="50" height="30" as="geometry" />
        </mxCell>
        <mxCell id="JLQM5sAZSnSmbtlJIYIe-55" value="" style="rhombus;whiteSpace=wrap;html=1;" parent="WIyWlLk6GJQsqaUBKTNV-1" vertex="1">
          <mxGeometry x="2025.6200000000001" y="2072" width="94.5" height="90" as="geometry" />
        </mxCell>
        <mxCell id="JLQM5sAZSnSmbtlJIYIe-56" value="IS-A" style="rhombus;whiteSpace=wrap;html=1;" parent="WIyWlLk6GJQsqaUBKTNV-1" vertex="1">
          <mxGeometry x="2030.8700000000001" y="2078.6800000000003" width="83.5" height="76.82" as="geometry" />
        </mxCell>
        <mxCell id="FQBhquQ9skOd-RJN0nXC-3" value="Withdrawal" style="rounded=0;whiteSpace=wrap;html=1;fontStyle=1" parent="WIyWlLk6GJQsqaUBKTNV-1" vertex="1">
          <mxGeometry x="3002.18" y="1785.1999999999994" width="160" height="80" as="geometry" />
        </mxCell>
        <mxCell id="JY_EDOV9F8wMyD7FQhxF-16" value="VATCode&lt;div&gt;List&lt;/div&gt;" style="rounded=0;whiteSpace=wrap;html=1;fontStyle=1;fillColor=#d5e8d4;strokeColor=#82b366;" parent="WIyWlLk6GJQsqaUBKTNV-1" vertex="1">
          <mxGeometry x="1360.0000000000002" y="734.9999999999998" width="160" height="80" as="geometry" />
        </mxCell>
        <mxCell id="JY_EDOV9F8wMyD7FQhxF-20" value="" style="endArrow=classic;html=1;rounded=0;endFill=1;strokeWidth=2;exitX=1;exitY=0.5;exitDx=0;exitDy=0;" parent="WIyWlLk6GJQsqaUBKTNV-1" source="JY_EDOV9F8wMyD7FQhxF-16" edge="1">
          <mxGeometry width="50" height="50" relative="1" as="geometry">
            <mxPoint x="1579.0000000000002" y="775.54" as="sourcePoint" />
            <mxPoint x="1679.0000000000002" y="775.19" as="targetPoint" />
          </mxGeometry>
        </mxCell>
        <mxCell id="JY_EDOV9F8wMyD7FQhxF-23" value="&lt;span style=&quot;color: rgba(0, 0, 0, 0); font-family: monospace; font-size: 0px; font-weight: 400; text-align: start; text-wrap-mode: nowrap;&quot;&gt;%3CmxGraphModel%3E%3Croot%3E%3CmxCell%20id%3D%220%22%2F%3E%3CmxCell%20id%3D%221%22%20parent%3D%220%22%2F%3E%3CmxCell%20id%3D%222%22%20value%3D%22Price%26lt%3Bdiv%26gt%3BSpecification%26lt%3B%2Fdiv%26gt%3B%22%20style%3D%22rounded%3D0%3BwhiteSpace%3Dwrap%3Bhtml%3D1%3BfontStyle%3D1%22%20vertex%3D%221%22%20parent%3D%221%22%3E%3CmxGeometry%20x%3D%22954%22%20y%3D%221819%22%20width%3D%22160%22%20height%3D%2280%22%20as%3D%22geometry%22%2F%3E%3C%2FmxCell%3E%3C%2Froot%3E%3C%2FmxGraphModel%3E&lt;/span&gt;" style="rounded=0;whiteSpace=wrap;html=1;fontStyle=1" parent="WIyWlLk6GJQsqaUBKTNV-1" vertex="1">
          <mxGeometry x="1678.0000000000002" y="734.0699999999999" width="160" height="80" as="geometry" />
        </mxCell>
        <mxCell id="vOSCY3Hg0piOMHUVaGEQ-7" value="" style="endArrow=classic;html=1;rounded=0;endFill=1;startFill=0;entryX=0.971;entryY=0.895;entryDx=0;entryDy=0;entryPerimeter=0;" parent="WIyWlLk6GJQsqaUBKTNV-1" target="nr9qznxnuRBBL26ijgo9-61" edge="1">
          <mxGeometry width="50" height="50" relative="1" as="geometry">
            <mxPoint x="3087.37" y="1681.1999999999996" as="sourcePoint" />
            <mxPoint x="3087" y="1740" as="targetPoint" />
          </mxGeometry>
        </mxCell>
        <mxCell id="_1RglAVevbmalXWGtEXD-6" value="" style="rhombus;whiteSpace=wrap;html=1;" parent="WIyWlLk6GJQsqaUBKTNV-1" vertex="1">
          <mxGeometry x="3033.93" y="1966.1699999999996" width="94.5" height="90" as="geometry" />
        </mxCell>
        <mxCell id="_1RglAVevbmalXWGtEXD-7" value="IS-A" style="rhombus;whiteSpace=wrap;html=1;" parent="WIyWlLk6GJQsqaUBKTNV-1" vertex="1">
          <mxGeometry x="3039.18" y="1972.8499999999995" width="83.5" height="76.82" as="geometry" />
        </mxCell>
        <mxCell id="_1RglAVevbmalXWGtEXD-8" value="&lt;b&gt;(1,1)&lt;/b&gt;" style="text;html=1;align=center;verticalAlign=middle;resizable=0;points=[];autosize=1;strokeColor=none;fillColor=none;" parent="WIyWlLk6GJQsqaUBKTNV-1" vertex="1">
          <mxGeometry x="3042.1699999999996" y="1860.9999999999995" width="50" height="30" as="geometry" />
        </mxCell>
        <mxCell id="_1RglAVevbmalXWGtEXD-12" value="" style="endArrow=none;html=1;rounded=0;" parent="WIyWlLk6GJQsqaUBKTNV-1" edge="1">
          <mxGeometry width="50" height="50" relative="1" as="geometry">
            <mxPoint x="2897.18" y="2220.8699999999994" as="sourcePoint" />
            <mxPoint x="3267.18" y="2220.8699999999994" as="targetPoint" />
          </mxGeometry>
        </mxCell>
        <mxCell id="_1RglAVevbmalXWGtEXD-13" value="" style="endArrow=classic;html=1;rounded=0;exitX=0.5;exitY=0;exitDx=0;exitDy=0;endFill=1;entryX=0.5;entryY=0;entryDx=0;entryDy=0;" parent="WIyWlLk6GJQsqaUBKTNV-1" target="_1RglAVevbmalXWGtEXD-15" edge="1">
          <mxGeometry width="50" height="50" relative="1" as="geometry">
            <mxPoint x="2896.18" y="2219.8699999999994" as="sourcePoint" />
            <mxPoint x="2896.18" y="2289.8699999999994" as="targetPoint" />
          </mxGeometry>
        </mxCell>
        <mxCell id="_1RglAVevbmalXWGtEXD-14" value="" style="endArrow=classicThin;html=1;rounded=0;exitX=0.559;exitY=0.054;exitDx=0;exitDy=0;exitPerimeter=0;endFill=1;" parent="WIyWlLk6GJQsqaUBKTNV-1" edge="1">
          <mxGeometry width="50" height="50" relative="1" as="geometry">
            <mxPoint x="3267.18" y="2220.6799999999994" as="sourcePoint" />
            <mxPoint x="3267.18" y="2308.3699999999994" as="targetPoint" />
          </mxGeometry>
        </mxCell>
        <mxCell id="_1RglAVevbmalXWGtEXD-15" value="Withdrawal&lt;div&gt;RSD&lt;/div&gt;" style="rounded=0;whiteSpace=wrap;html=1;fontStyle=1" parent="WIyWlLk6GJQsqaUBKTNV-1" vertex="1">
          <mxGeometry x="2816.18" y="2307.3099999999995" width="160" height="80" as="geometry" />
        </mxCell>
        <mxCell id="_1RglAVevbmalXWGtEXD-16" value="Withdrawal&lt;div&gt;EUR&lt;/div&gt;" style="rounded=0;whiteSpace=wrap;html=1;fontStyle=1" parent="WIyWlLk6GJQsqaUBKTNV-1" vertex="1">
          <mxGeometry x="3178.68" y="2307.5499999999997" width="160" height="80" as="geometry" />
        </mxCell>
        <mxCell id="_1RglAVevbmalXWGtEXD-41" value="" style="edgeStyle=none;orthogonalLoop=1;jettySize=auto;html=1;rounded=0;strokeWidth=2;exitX=0;exitY=0.5;exitDx=0;exitDy=0;entryX=0.251;entryY=0.98;entryDx=0;entryDy=0;entryPerimeter=0;" parent="WIyWlLk6GJQsqaUBKTNV-1" source="6fleU-jqkwWg-XRkz1PE-0" edge="1">
          <mxGeometry width="100" relative="1" as="geometry">
            <mxPoint x="1677.1200000000003" y="183.96000000000026" as="sourcePoint" />
            <mxPoint x="1524.6200000000003" y="123.24000000000001" as="targetPoint" />
            <Array as="points" />
          </mxGeometry>
        </mxCell>
        <mxCell id="_1RglAVevbmalXWGtEXD-43" value="&lt;b&gt;(0,N)&lt;/b&gt;" style="text;html=1;align=center;verticalAlign=middle;resizable=0;points=[];autosize=1;strokeColor=none;fillColor=none;" parent="WIyWlLk6GJQsqaUBKTNV-1" vertex="1">
          <mxGeometry x="1664.8700000000001" y="93.24000000000001" width="50" height="30" as="geometry" />
        </mxCell>
        <mxCell id="_1RglAVevbmalXWGtEXD-44" value="" style="rounded=0;whiteSpace=wrap;html=1;fontStyle=1;fillColor=#d5e8d4;strokeColor=#82b366;" parent="WIyWlLk6GJQsqaUBKTNV-1" vertex="1">
          <mxGeometry x="1364.6200000000001" y="80.00000000000006" width="160" height="80" as="geometry" />
        </mxCell>
        <mxCell id="_1RglAVevbmalXWGtEXD-55" value="ContactPerson" style="rounded=0;whiteSpace=wrap;html=1;fontStyle=1;fillColor=#d5e8d4;strokeColor=#82b366;" parent="WIyWlLk6GJQsqaUBKTNV-1" vertex="1">
          <mxGeometry x="1372.1200000000001" y="86.50000000000006" width="145" height="66.91" as="geometry" />
        </mxCell>
        <mxCell id="23Pd9BPGmexuaKqUZe4i-0" value="&lt;b&gt;(1,N)&lt;/b&gt;" style="text;html=1;align=center;verticalAlign=middle;resizable=0;points=[];autosize=1;strokeColor=none;fillColor=none;fontColor=light-dark(#000000, #ff6ccb);" parent="WIyWlLk6GJQsqaUBKTNV-1" vertex="1">
          <mxGeometry x="1512.1800000000003" y="746.4499999999998" width="50" height="30" as="geometry" />
        </mxCell>
        <mxCell id="jLJpwwm2E1j9XLziIUlm-2" value="" style="whiteSpace=wrap;html=1;aspect=fixed;fillColor=#d5e8d4;strokeColor=#82b366;" parent="WIyWlLk6GJQsqaUBKTNV-1" vertex="1">
          <mxGeometry x="2030.5000000000002" y="720" width="110" height="110" as="geometry" />
        </mxCell>
        <mxCell id="jLJpwwm2E1j9XLziIUlm-3" value="&lt;span style=&quot;font-weight: 700;&quot;&gt;Item&lt;/span&gt;" style="rhombus;whiteSpace=wrap;html=1;movable=1;resizable=1;rotatable=1;deletable=1;editable=1;locked=0;connectable=1;fillColor=#d5e8d4;strokeColor=#82b366;" parent="WIyWlLk6GJQsqaUBKTNV-1" vertex="1">
          <mxGeometry x="2031.5000000000002" y="722" width="108" height="105" as="geometry" />
        </mxCell>
        <mxCell id="jLJpwwm2E1j9XLziIUlm-4" value="" style="endArrow=classic;html=1;rounded=0;endFill=1;startFill=0;" parent="WIyWlLk6GJQsqaUBKTNV-1" edge="1">
          <mxGeometry width="50" height="50" relative="1" as="geometry">
            <mxPoint x="2086.5" y="979.0999999999999" as="sourcePoint" />
            <mxPoint x="2086.5" y="833" as="targetPoint" />
          </mxGeometry>
        </mxCell>
        <mxCell id="jLJpwwm2E1j9XLziIUlm-5" value="&lt;b&gt;(1,N)&lt;/b&gt;" style="text;html=1;align=center;verticalAlign=middle;resizable=0;points=[];autosize=1;strokeColor=none;fillColor=none;fontColor=light-dark(#000000, #ff6ccb);" parent="WIyWlLk6GJQsqaUBKTNV-1" vertex="1">
          <mxGeometry x="1847.0000000000002" y="753.4999999999998" width="50" height="30" as="geometry" />
        </mxCell>
        <mxCell id="jLJpwwm2E1j9XLziIUlm-6" value="&lt;b&gt;(1,1)&lt;/b&gt;" style="text;html=1;align=center;verticalAlign=middle;resizable=0;points=[];autosize=1;strokeColor=none;fillColor=none;" parent="WIyWlLk6GJQsqaUBKTNV-1" vertex="1">
          <mxGeometry x="1980.5000000000002" y="753.5" width="50" height="30" as="geometry" />
        </mxCell>
        <mxCell id="jLJpwwm2E1j9XLziIUlm-9" value="&lt;b&gt;VATExamption&lt;/b&gt;&lt;div&gt;&lt;b&gt;Reason&lt;/b&gt;&lt;/div&gt;" style="text;html=1;align=center;verticalAlign=middle;whiteSpace=wrap;rounded=0;fillColor=#d5e8d4;strokeColor=#82b366;" parent="WIyWlLk6GJQsqaUBKTNV-1" vertex="1">
          <mxGeometry x="1688.7500000000002" y="742.4499999999998" width="139.75" height="63.98" as="geometry" />
        </mxCell>
        <mxCell id="I9pMaQt8I24prFdbPWmR-0" value="" style="endArrow=none;html=1;rounded=0;" parent="WIyWlLk6GJQsqaUBKTNV-1" edge="1">
          <mxGeometry width="50" height="50" relative="1" as="geometry">
            <mxPoint x="2105.12" y="1113.3000000000002" as="sourcePoint" />
            <mxPoint x="2104.62" y="1059.3000000000002" as="targetPoint" />
          </mxGeometry>
        </mxCell>
        <mxCell id="I9pMaQt8I24prFdbPWmR-1" value="" style="endArrow=none;html=1;rounded=0;endFill=1;exitX=0.5;exitY=1;exitDx=0;exitDy=0;strokeWidth=1;startFill=0;" parent="WIyWlLk6GJQsqaUBKTNV-1" edge="1">
          <mxGeometry width="50" height="50" relative="1" as="geometry">
            <mxPoint x="2106.3699999999994" y="1204.27" as="sourcePoint" />
            <mxPoint x="2107.12" y="1263.3000000000002" as="targetPoint" />
          </mxGeometry>
        </mxCell>
        <mxCell id="I9pMaQt8I24prFdbPWmR-2" value="" style="rhombus;whiteSpace=wrap;html=1;" parent="WIyWlLk6GJQsqaUBKTNV-1" vertex="1">
          <mxGeometry x="2058.12" y="1114.27" width="94.5" height="90" as="geometry" />
        </mxCell>
        <mxCell id="I9pMaQt8I24prFdbPWmR-3" value="IS-A" style="rhombus;whiteSpace=wrap;html=1;" parent="WIyWlLk6GJQsqaUBKTNV-1" vertex="1">
          <mxGeometry x="2063.37" y="1120.9500000000003" width="83.5" height="76.82" as="geometry" />
        </mxCell>
        <mxCell id="I9pMaQt8I24prFdbPWmR-4" value="&lt;b&gt;(1,1)&lt;/b&gt;" style="text;html=1;align=center;verticalAlign=middle;resizable=0;points=[];autosize=1;strokeColor=none;fillColor=none;" parent="WIyWlLk6GJQsqaUBKTNV-1" vertex="1">
          <mxGeometry x="2058.12" y="1059.1000000000001" width="50" height="30" as="geometry" />
        </mxCell>
        <mxCell id="I9pMaQt8I24prFdbPWmR-6" value="Transportation Service" style="rounded=0;whiteSpace=wrap;html=1;fontStyle=1;fillColor=#d5e8d4;strokeColor=#82b366;" parent="WIyWlLk6GJQsqaUBKTNV-1" vertex="1">
          <mxGeometry x="1728.62" y="1373.3000000000002" width="160" height="80" as="geometry" />
        </mxCell>
        <mxCell id="q068-KadxLZRPtvk7sRx-6" value="&lt;b&gt;Status&lt;br&gt;Lookups&lt;/b&gt;" style="rounded=0;whiteSpace=wrap;html=1;fillColor=#fff2cc;strokeColor=#d6b656;" parent="WIyWlLk6GJQsqaUBKTNV-1" vertex="1">
          <mxGeometry x="2123.62" y="552.63" width="60" height="32.27" as="geometry" />
        </mxCell>
        <mxCell id="q068-KadxLZRPtvk7sRx-8" value="" style="endArrow=none;html=1;rounded=0;entryX=0.594;entryY=0.981;entryDx=0;entryDy=0;entryPerimeter=0;" parent="WIyWlLk6GJQsqaUBKTNV-1" edge="1">
          <mxGeometry width="50" height="50" relative="1" as="geometry">
            <mxPoint x="2103.62" y="566.9" as="sourcePoint" />
            <mxPoint x="2103.66" y="526.86" as="targetPoint" />
          </mxGeometry>
        </mxCell>
        <mxCell id="wU-jtw-yqAymgOgauggo-0" value="" style="endArrow=none;html=1;rounded=0;" parent="WIyWlLk6GJQsqaUBKTNV-1" edge="1">
          <mxGeometry width="50" height="50" relative="1" as="geometry">
            <mxPoint x="1801.1200000000001" y="1263.4" as="sourcePoint" />
            <mxPoint x="2371.12" y="1263.4" as="targetPoint" />
          </mxGeometry>
        </mxCell>
        <mxCell id="wU-jtw-yqAymgOgauggo-1" value="" style="endArrow=classic;html=1;rounded=0;endFill=1;" parent="WIyWlLk6GJQsqaUBKTNV-1" edge="1">
          <mxGeometry width="50" height="50" relative="1" as="geometry">
            <mxPoint x="1801.1200000000001" y="1263.3000000000002" as="sourcePoint" />
            <mxPoint x="1801.1200000000001" y="1371.3000000000002" as="targetPoint" />
          </mxGeometry>
        </mxCell>
        <mxCell id="wU-jtw-yqAymgOgauggo-2" value="" style="endArrow=classic;html=1;rounded=0;endFill=1;" parent="WIyWlLk6GJQsqaUBKTNV-1" edge="1">
          <mxGeometry width="50" height="50" relative="1" as="geometry">
            <mxPoint x="2106.62" y="1263.3000000000002" as="sourcePoint" />
            <mxPoint x="2106.62" y="1371.3000000000002" as="targetPoint" />
          </mxGeometry>
        </mxCell>
        <mxCell id="wU-jtw-yqAymgOgauggo-3" value="" style="endArrow=classicThin;html=1;rounded=0;endFill=1;" parent="WIyWlLk6GJQsqaUBKTNV-1" edge="1">
          <mxGeometry width="50" height="50" relative="1" as="geometry">
            <mxPoint x="2371.12" y="1264.3000000000002" as="sourcePoint" />
            <mxPoint x="2371.12" y="1372.3000000000002" as="targetPoint" />
          </mxGeometry>
        </mxCell>
        <mxCell id="wU-jtw-yqAymgOgauggo-4" value="Outsorcing Transportation" style="rounded=0;whiteSpace=wrap;html=1;fontStyle=1;fillColor=#d5e8d4;strokeColor=#82b366;" parent="WIyWlLk6GJQsqaUBKTNV-1" vertex="1">
          <mxGeometry x="2025.12" y="1373.3000000000002" width="160" height="80" as="geometry" />
        </mxCell>
        <mxCell id="wU-jtw-yqAymgOgauggo-5" value="Taxes" style="rounded=0;whiteSpace=wrap;html=1;fontStyle=1;fillColor=#d5e8d4;strokeColor=#82b366;" parent="WIyWlLk6GJQsqaUBKTNV-1" vertex="1">
          <mxGeometry x="2282.12" y="1373.3000000000002" width="160" height="80" as="geometry" />
        </mxCell>
        <mxCell id="wU-jtw-yqAymgOgauggo-9" value="" style="endArrow=classic;html=1;rounded=0;endFill=1;" parent="WIyWlLk6GJQsqaUBKTNV-1" edge="1">
          <mxGeometry width="50" height="50" relative="1" as="geometry">
            <mxPoint x="2108.12" y="1617.4" as="sourcePoint" />
            <mxPoint x="2108.12" y="1453.3000000000002" as="targetPoint" />
          </mxGeometry>
        </mxCell>
        <mxCell id="wU-jtw-yqAymgOgauggo-13" value="&lt;b&gt;(1,1)&lt;/b&gt;" style="text;html=1;align=center;verticalAlign=middle;whiteSpace=wrap;rounded=0;" parent="WIyWlLk6GJQsqaUBKTNV-1" vertex="1">
          <mxGeometry x="2055.5" y="1453.3000000000002" width="60" height="30" as="geometry" />
        </mxCell>
        <mxCell id="lh2_92bgUW_Hdn3y_NVo-3" value="Car" style="rounded=0;whiteSpace=wrap;html=1;fontStyle=1;fillColor=#f8cecc;strokeColor=#b85450;" parent="WIyWlLk6GJQsqaUBKTNV-1" vertex="1">
          <mxGeometry x="1744.1200000000001" y="1777.4" width="164" height="80" as="geometry" />
        </mxCell>
        <mxCell id="nr9qznxnuRBBL26ijgo9-0" value="&lt;b&gt;(1,N)&lt;/b&gt;" style="text;html=1;align=center;verticalAlign=middle;resizable=0;points=[];autosize=1;strokeColor=none;fillColor=none;" parent="WIyWlLk6GJQsqaUBKTNV-1" vertex="1">
          <mxGeometry x="1526.6200000000001" y="93.90000000000003" width="50" height="30" as="geometry" />
        </mxCell>
        <mxCell id="nr9qznxnuRBBL26ijgo9-17" value="" style="endArrow=classic;html=1;rounded=0;fontStyle=1;endFill=1;startFill=0;exitX=0.99;exitY=0.45;exitDx=0;exitDy=0;exitPerimeter=0;" parent="WIyWlLk6GJQsqaUBKTNV-1" source="6fleU-jqkwWg-XRkz1PE-32" edge="1">
          <mxGeometry width="50" height="50" relative="1" as="geometry">
            <mxPoint x="2211.8366666666657" y="2343" as="sourcePoint" />
            <mxPoint x="2291.18" y="2343.2700000000004" as="targetPoint" />
          </mxGeometry>
        </mxCell>
        <mxCell id="nr9qznxnuRBBL26ijgo9-22" value="" style="endArrow=classic;html=1;rounded=0;" parent="WIyWlLk6GJQsqaUBKTNV-1" edge="1">
          <mxGeometry width="50" height="50" relative="1" as="geometry">
            <mxPoint x="2103.62" y="566.9" as="sourcePoint" />
            <mxPoint x="2123.62" y="566.9" as="targetPoint" />
          </mxGeometry>
        </mxCell>
        <mxCell id="nr9qznxnuRBBL26ijgo9-23" value="" style="endArrow=classic;html=1;rounded=0;endFill=1;strokeWidth=1;exitX=1.008;exitY=0.577;exitDx=0;exitDy=0;exitPerimeter=0;" parent="WIyWlLk6GJQsqaUBKTNV-1" source="JY_EDOV9F8wMyD7FQhxF-23" edge="1">
          <mxGeometry width="50" height="50" relative="1" as="geometry">
            <mxPoint x="1860.2500000000002" y="779.6899999999998" as="sourcePoint" />
            <mxPoint x="2030.5000000000002" y="779.6899999999998" as="targetPoint" />
          </mxGeometry>
        </mxCell>
        <mxCell id="nr9qznxnuRBBL26ijgo9-27" value="" style="whiteSpace=wrap;html=1;aspect=fixed;container=1;fillColor=#d5e8d4;strokeColor=#82b366;" parent="WIyWlLk6GJQsqaUBKTNV-1" vertex="1">
          <mxGeometry x="2063.87" y="1617.4000000000005" width="80" height="80" as="geometry" />
        </mxCell>
        <mxCell id="nr9qznxnuRBBL26ijgo9-28" value="&lt;span style=&quot;font-weight: 700;&quot;&gt;Composition&lt;/span&gt;" style="rhombus;whiteSpace=wrap;html=1;movable=1;resizable=1;rotatable=1;deletable=1;editable=1;locked=0;connectable=1;fillColor=#d5e8d4;strokeColor=#82b366;container=0;" parent="WIyWlLk6GJQsqaUBKTNV-1" vertex="1">
          <mxGeometry x="2064.87" y="1617.4000000000005" width="80" height="80" as="geometry" />
        </mxCell>
        <mxCell id="nr9qznxnuRBBL26ijgo9-29" value="(0,N)" style="text;html=1;align=center;verticalAlign=middle;resizable=0;points=[];autosize=1;strokeColor=none;fillColor=none;fontStyle=1" parent="WIyWlLk6GJQsqaUBKTNV-1" vertex="1">
          <mxGeometry x="2063.87" y="1590.4000000000005" width="50" height="30" as="geometry" />
        </mxCell>
        <mxCell id="nr9qznxnuRBBL26ijgo9-30" value="" style="endArrow=classic;html=1;rounded=0;endFill=1;entryX=0.5;entryY=1;entryDx=0;entryDy=0;" parent="WIyWlLk6GJQsqaUBKTNV-1" target="nr9qznxnuRBBL26ijgo9-28" edge="1">
          <mxGeometry width="50" height="50" relative="1" as="geometry">
            <mxPoint x="2104.2" y="1777.4" as="sourcePoint" />
            <mxPoint x="2104.2" y="1707.4" as="targetPoint" />
          </mxGeometry>
        </mxCell>
        <mxCell id="nr9qznxnuRBBL26ijgo9-31" value="" style="endArrow=classic;html=1;rounded=0;endFill=1;entryX=0.5;entryY=1;entryDx=0;entryDy=0;" parent="WIyWlLk6GJQsqaUBKTNV-1" edge="1">
          <mxGeometry width="50" height="50" relative="1" as="geometry">
            <mxPoint x="2346.18" y="1659" as="sourcePoint" />
            <mxPoint x="2145.87" y="1659" as="targetPoint" />
          </mxGeometry>
        </mxCell>
        <mxCell id="nr9qznxnuRBBL26ijgo9-33" value="(1,N)" style="text;html=1;align=center;verticalAlign=middle;resizable=0;points=[];autosize=1;strokeColor=none;fillColor=none;fontStyle=1" parent="WIyWlLk6GJQsqaUBKTNV-1" vertex="1">
          <mxGeometry x="2096.87" y="1747.4" width="50" height="30" as="geometry" />
        </mxCell>
        <mxCell id="nr9qznxnuRBBL26ijgo9-34" value="(1,N)" style="text;html=1;align=center;verticalAlign=middle;resizable=0;points=[];autosize=1;strokeColor=none;fillColor=none;fontStyle=1" parent="WIyWlLk6GJQsqaUBKTNV-1" vertex="1">
          <mxGeometry x="2302.37" y="1748.4" width="50" height="30" as="geometry" />
        </mxCell>
        <mxCell id="nr9qznxnuRBBL26ijgo9-36" value="&lt;b&gt;Vehicle&lt;/b&gt;&lt;br&gt;&lt;div&gt;&lt;b&gt;Inspection&lt;/b&gt;&lt;/div&gt;" style="rhombus;whiteSpace=wrap;html=1;fillColor=#d5e8d4;strokeColor=#82b366;" parent="WIyWlLk6GJQsqaUBKTNV-1" vertex="1">
          <mxGeometry x="2289.18" y="2303" width="104" height="80" as="geometry" />
        </mxCell>
        <mxCell id="nr9qznxnuRBBL26ijgo9-38" value="" style="group;rotation=-180;" parent="WIyWlLk6GJQsqaUBKTNV-1" vertex="1" connectable="0">
          <mxGeometry x="1789.88" y="1859" width="534.95" height="94" as="geometry" />
        </mxCell>
        <mxCell id="JLQM5sAZSnSmbtlJIYIe-20" value="" style="endArrow=classic;html=1;rounded=0;endFill=1;" parent="nr9qznxnuRBBL26ijgo9-38" edge="1">
          <mxGeometry width="50" height="50" relative="1" as="geometry">
            <mxPoint x="546.9627329192547" y="93" as="sourcePoint" />
            <mxPoint x="546.9627329192547" y="1" as="targetPoint" />
          </mxGeometry>
        </mxCell>
        <mxCell id="_1RglAVevbmalXWGtEXD-56" value="" style="endArrow=classic;html=1;rounded=0;endFill=1;" parent="nr9qznxnuRBBL26ijgo9-38" edge="1">
          <mxGeometry width="50" height="50" relative="1" as="geometry">
            <mxPoint x="283.19378881987575" y="93" as="sourcePoint" />
            <mxPoint x="283.19378881987575" y="1" as="targetPoint" />
          </mxGeometry>
        </mxCell>
        <mxCell id="_1RglAVevbmalXWGtEXD-57" value="" style="endArrow=none;html=1;rounded=0;" parent="nr9qznxnuRBBL26ijgo9-38" edge="1">
          <mxGeometry width="50" height="50" relative="1" as="geometry">
            <mxPoint x="546.9627329192547" y="94" as="sourcePoint" />
            <mxPoint x="12.26832298136646" y="93" as="targetPoint" />
          </mxGeometry>
        </mxCell>
        <mxCell id="lh2_92bgUW_Hdn3y_NVo-4" value="" style="endArrow=classic;html=1;rounded=0;endFill=1;" parent="nr9qznxnuRBBL26ijgo9-38" edge="1">
          <mxGeometry width="50" height="50" relative="1" as="geometry">
            <mxPoint x="12.26832298136646" y="92" as="sourcePoint" />
            <mxPoint x="12.26832298136646" as="targetPoint" />
          </mxGeometry>
        </mxCell>
        <mxCell id="nr9qznxnuRBBL26ijgo9-44" value="" style="endArrow=none;html=1;rounded=0;endFill=1;entryX=0.5;entryY=1;entryDx=0;entryDy=0;startFill=0;exitX=0.969;exitY=0.947;exitDx=0;exitDy=0;exitPerimeter=0;" parent="WIyWlLk6GJQsqaUBKTNV-1" edge="1">
          <mxGeometry width="50" height="50" relative="1" as="geometry">
            <mxPoint x="2345.8199999999997" y="1776.8100000000004" as="sourcePoint" />
            <mxPoint x="2346.5499999999997" y="1658" as="targetPoint" />
          </mxGeometry>
        </mxCell>
        <mxCell id="nr9qznxnuRBBL26ijgo9-46" value="(1,1)" style="text;html=1;align=center;verticalAlign=middle;resizable=0;points=[];autosize=1;strokeColor=none;fillColor=none;fontStyle=1" parent="WIyWlLk6GJQsqaUBKTNV-1" vertex="1">
          <mxGeometry x="2064.37" y="2281" width="50" height="30" as="geometry" />
        </mxCell>
        <mxCell id="nr9qznxnuRBBL26ijgo9-47" value="&lt;b&gt;(1,N)&lt;/b&gt;" style="text;html=1;align=center;verticalAlign=middle;whiteSpace=wrap;rounded=0;" parent="WIyWlLk6GJQsqaUBKTNV-1" vertex="1">
          <mxGeometry x="2129.18" y="2341.5" width="60" height="30" as="geometry" />
        </mxCell>
        <mxCell id="nr9qznxnuRBBL26ijgo9-60" value="&lt;span&gt;(1,N)&lt;/span&gt;" style="text;html=1;align=center;verticalAlign=middle;resizable=0;points=[];autosize=1;strokeColor=none;fillColor=none;fontStyle=1" parent="WIyWlLk6GJQsqaUBKTNV-1" vertex="1">
          <mxGeometry x="3041.6200000000003" y="1678.4299999999992" width="50" height="30" as="geometry" />
        </mxCell>
        <mxCell id="nr9qznxnuRBBL26ijgo9-61" value="&lt;b&gt;(1,1)&lt;/b&gt;" style="text;html=1;align=center;verticalAlign=middle;resizable=0;points=[];autosize=1;strokeColor=none;fillColor=none;" parent="WIyWlLk6GJQsqaUBKTNV-1" vertex="1">
          <mxGeometry x="3039.37" y="1758.1999999999998" width="50" height="30" as="geometry" />
        </mxCell>
        <mxCell id="_1RglAVevbmalXWGtEXD-23" value="" style="endArrow=none;html=1;rounded=0;endFill=1;strokeWidth=2;startFill=0;" parent="WIyWlLk6GJQsqaUBKTNV-1" edge="1">
          <mxGeometry width="50" height="50" relative="1" as="geometry">
            <mxPoint x="3077.2999999999997" y="1189.75" as="sourcePoint" />
            <mxPoint x="3077.18" y="1110" as="targetPoint" />
          </mxGeometry>
        </mxCell>
        <mxCell id="_1RglAVevbmalXWGtEXD-28" value="" style="endArrow=none;html=1;rounded=0;" parent="WIyWlLk6GJQsqaUBKTNV-1" edge="1">
          <mxGeometry width="50" height="50" relative="1" as="geometry">
            <mxPoint x="3204.5499999999997" y="1111.0999999999995" as="sourcePoint" />
            <mxPoint x="2938.5499999999997" y="1111.0999999999995" as="targetPoint" />
          </mxGeometry>
        </mxCell>
        <mxCell id="_1RglAVevbmalXWGtEXD-33" value="TravelExpensesRSD" style="rounded=0;whiteSpace=wrap;html=1;fontStyle=1;rotation=0;" parent="WIyWlLk6GJQsqaUBKTNV-1" vertex="1">
          <mxGeometry x="2867.2999999999997" y="989.0999999999992" width="160" height="80" as="geometry" />
        </mxCell>
        <mxCell id="_1RglAVevbmalXWGtEXD-34" value="TravelExpensesEUR" style="rounded=0;whiteSpace=wrap;html=1;fontStyle=1;rotation=0;" parent="WIyWlLk6GJQsqaUBKTNV-1" vertex="1">
          <mxGeometry x="3125.5499999999997" y="989.0999999999992" width="160" height="80" as="geometry" />
        </mxCell>
        <mxCell id="_1RglAVevbmalXWGtEXD-36" value="" style="endArrow=classicThin;html=1;rounded=0;endFill=1;" parent="WIyWlLk6GJQsqaUBKTNV-1" edge="1">
          <mxGeometry width="50" height="50" relative="1" as="geometry">
            <mxPoint x="2937.5499999999997" y="1112.0999999999995" as="sourcePoint" />
            <mxPoint x="2937.5499999999997" y="1075.0999999999992" as="targetPoint" />
          </mxGeometry>
        </mxCell>
        <mxCell id="_1RglAVevbmalXWGtEXD-37" value="" style="endArrow=classicThin;html=1;rounded=0;endFill=1;" parent="WIyWlLk6GJQsqaUBKTNV-1" edge="1">
          <mxGeometry width="50" height="50" relative="1" as="geometry">
            <mxPoint x="3204.5499999999997" y="1111.0999999999995" as="sourcePoint" />
            <mxPoint x="3204.5499999999997" y="1074.0999999999992" as="targetPoint" />
          </mxGeometry>
        </mxCell>
        <mxCell id="_1RglAVevbmalXWGtEXD-26" value="&lt;b&gt;(1,1)&lt;/b&gt;" style="text;html=1;align=center;verticalAlign=middle;resizable=0;points=[];autosize=1;strokeColor=none;fillColor=none;" parent="WIyWlLk6GJQsqaUBKTNV-1" vertex="1">
          <mxGeometry x="3032.2999999999997" y="1339.7499999999995" width="50" height="30" as="geometry" />
        </mxCell>
        <mxCell id="nr9qznxnuRBBL26ijgo9-63" value="" style="rhombus;whiteSpace=wrap;html=1;rotation=0;movable=1;resizable=1;rotatable=1;deletable=1;editable=1;locked=0;connectable=1;" parent="WIyWlLk6GJQsqaUBKTNV-1" vertex="1">
          <mxGeometry x="3029.9199999999996" y="1189.75" width="98.25" height="88.63" as="geometry" />
        </mxCell>
        <mxCell id="nr9qznxnuRBBL26ijgo9-64" value="IS-A" style="rhombus;whiteSpace=wrap;html=1;rotation=0;movable=1;resizable=1;rotatable=1;deletable=1;editable=1;locked=0;connectable=1;" parent="WIyWlLk6GJQsqaUBKTNV-1" vertex="1">
          <mxGeometry x="3034.1699999999996" y="1195.1999999999998" width="89.5" height="77.72" as="geometry" />
        </mxCell>
        <mxCell id="nr9qznxnuRBBL26ijgo9-65" value="" style="edgeStyle=orthogonalEdgeStyle;rounded=0;orthogonalLoop=1;jettySize=auto;html=1;endArrow=none;endFill=1;fontStyle=1;startFill=0;exitX=0.5;exitY=0;exitDx=0;exitDy=0;" parent="WIyWlLk6GJQsqaUBKTNV-1" source="6fleU-jqkwWg-XRkz1PE-47" edge="1">
          <mxGeometry relative="1" as="geometry">
            <mxPoint x="3078.2999999999997" y="1359.7500000000005" as="sourcePoint" />
            <mxPoint x="3078.7900000000004" y="1278.3799999999997" as="targetPoint" />
          </mxGeometry>
        </mxCell>
        <mxCell id="nr9qznxnuRBBL26ijgo9-68" value="" style="endArrow=none;html=1;rounded=0;strokeWidth=2;" parent="WIyWlLk6GJQsqaUBKTNV-1" edge="1">
          <mxGeometry width="50" height="50" relative="1" as="geometry">
            <mxPoint x="2073.0299999999997" y="2071.68" as="sourcePoint" />
            <mxPoint x="2073.1800000000003" y="1950" as="targetPoint" />
          </mxGeometry>
        </mxCell>
        <mxCell id="nr9qznxnuRBBL26ijgo9-69" value="" style="endArrow=none;html=1;rounded=0;" parent="WIyWlLk6GJQsqaUBKTNV-1" edge="1">
          <mxGeometry width="50" height="50" relative="1" as="geometry">
            <mxPoint x="2075.1800000000003" y="2305" as="sourcePoint" />
            <mxPoint x="2073.1800000000003" y="2162.32" as="targetPoint" />
          </mxGeometry>
        </mxCell>
        <mxCell id="nr9qznxnuRBBL26ijgo9-71" value="&lt;b&gt;(0,N)&lt;/b&gt;" style="text;html=1;align=center;verticalAlign=middle;resizable=0;points=[];autosize=1;strokeColor=none;fillColor=none;" parent="WIyWlLk6GJQsqaUBKTNV-1" vertex="1">
          <mxGeometry x="3034.1700000000005" y="1571.5999999999988" width="50" height="30" as="geometry" />
        </mxCell>
        <mxCell id="nr9qznxnuRBBL26ijgo9-72" value="&lt;b&gt;(1,1)&lt;/b&gt;" style="text;html=1;align=center;verticalAlign=middle;resizable=0;points=[];autosize=1;strokeColor=none;fillColor=none;" parent="WIyWlLk6GJQsqaUBKTNV-1" vertex="1">
          <mxGeometry x="3034.2999999999997" y="1447.3" width="50" height="30" as="geometry" />
        </mxCell>
        <mxCell id="nr9qznxnuRBBL26ijgo9-73" value="" style="endArrow=classic;html=1;rounded=0;" parent="WIyWlLk6GJQsqaUBKTNV-1" edge="1">
          <mxGeometry width="50" height="50" relative="1" as="geometry">
            <mxPoint x="3079.18" y="1600" as="sourcePoint" />
            <mxPoint x="3079.4300000000007" y="1446.75" as="targetPoint" />
          </mxGeometry>
        </mxCell>
        <mxCell id="KJzYNLKTrp_ooMd6hEDH-104" value="" style="rhombus;whiteSpace=wrap;html=1;fontStyle=1;container=0;rotation=-180;" parent="WIyWlLk6GJQsqaUBKTNV-1" vertex="1" collapsed="1">
          <mxGeometry x="3152.5499999999997" y="1554" width="40" height="36.06679064824657" as="geometry">
            <mxRectangle x="1140" y="2686.23" width="39" height="43.77" as="alternateBounds" />
          </mxGeometry>
        </mxCell>
        <mxCell id="KJzYNLKTrp_ooMd6hEDH-105" value="&lt;span&gt;Mgr&lt;/span&gt;" style="text;html=1;align=center;verticalAlign=middle;whiteSpace=wrap;rounded=0;fontStyle=1;rotation=0;" parent="WIyWlLk6GJQsqaUBKTNV-1" vertex="1">
          <mxGeometry x="3158.5499999999997" y="1562" width="29.75" height="22.6739107332625" as="geometry" />
        </mxCell>
        <mxCell id="KJzYNLKTrp_ooMd6hEDH-109" value="&lt;span&gt;(0,N)&lt;/span&gt;" style="text;html=1;align=center;verticalAlign=middle;resizable=0;points=[];autosize=1;strokeColor=none;fillColor=none;fontStyle=1;rotation=0;" parent="WIyWlLk6GJQsqaUBKTNV-1" vertex="1">
          <mxGeometry x="3125.5499999999997" y="1574" width="50" height="30" as="geometry" />
        </mxCell>
        <mxCell id="KJzYNLKTrp_ooMd6hEDH-110" value="&lt;span&gt;(0,1)&lt;/span&gt;" style="text;html=1;align=center;verticalAlign=middle;resizable=0;points=[];autosize=1;strokeColor=none;fillColor=none;fontStyle=1;rotation=1;" parent="WIyWlLk6GJQsqaUBKTNV-1" vertex="1">
          <mxGeometry x="3186.5499999999997" y="1596.4" width="50" height="30" as="geometry" />
        </mxCell>
        <mxCell id="nr9qznxnuRBBL26ijgo9-53" value="" style="endArrow=none;html=1;rounded=0;" parent="WIyWlLk6GJQsqaUBKTNV-1" edge="1">
          <mxGeometry width="50" height="50" relative="1" as="geometry">
            <mxPoint x="3226.18" y="1572" as="sourcePoint" />
            <mxPoint x="3226.18" y="1620" as="targetPoint" />
          </mxGeometry>
        </mxCell>
        <mxCell id="nr9qznxnuRBBL26ijgo9-55" value="" style="endArrow=none;html=1;rounded=0;" parent="WIyWlLk6GJQsqaUBKTNV-1" edge="1">
          <mxGeometry width="50" height="50" relative="1" as="geometry">
            <mxPoint x="3226.18" y="1572" as="sourcePoint" />
            <mxPoint x="3192.5499999999997" y="1572" as="targetPoint" />
          </mxGeometry>
        </mxCell>
        <mxCell id="nr9qznxnuRBBL26ijgo9-56" value="" style="endArrow=none;html=1;rounded=0;" parent="WIyWlLk6GJQsqaUBKTNV-1" edge="1">
          <mxGeometry width="50" height="50" relative="1" as="geometry">
            <mxPoint x="3152.5499999999997" y="1571" as="sourcePoint" />
            <mxPoint x="3134.5499999999997" y="1571" as="targetPoint" />
          </mxGeometry>
        </mxCell>
        <mxCell id="nr9qznxnuRBBL26ijgo9-57" value="" style="endArrow=none;html=1;rounded=0;" parent="WIyWlLk6GJQsqaUBKTNV-1" edge="1">
          <mxGeometry width="50" height="50" relative="1" as="geometry">
            <mxPoint x="3134.5499999999997" y="1571" as="sourcePoint" />
            <mxPoint x="3134.5499999999997" y="1600" as="targetPoint" />
          </mxGeometry>
        </mxCell>
        <mxCell id="eXBoB5VEGD14m0D3QJLi-3" value="" style="endArrow=none;html=1;rounded=0;" parent="WIyWlLk6GJQsqaUBKTNV-1" edge="1">
          <mxGeometry width="50" height="50" relative="1" as="geometry">
            <mxPoint x="3226.18" y="1620" as="sourcePoint" />
            <mxPoint x="3160.37" y="1620.4" as="targetPoint" />
          </mxGeometry>
        </mxCell>
        <mxCell id="KJzYNLKTrp_ooMd6hEDH-135" value="&lt;b&gt;Employee&lt;/b&gt;&lt;div&gt;&lt;b&gt;Inspection&lt;/b&gt;&lt;/div&gt;" style="rhombus;whiteSpace=wrap;html=1;rotation=0;" parent="WIyWlLk6GJQsqaUBKTNV-1" vertex="1">
          <mxGeometry x="2536.18" y="1950" width="89.43" height="81" as="geometry" />
        </mxCell>
        <mxCell id="nr9qznxnuRBBL26ijgo9-7" value="&lt;b&gt;(0,N)&lt;/b&gt;" style="text;html=1;align=center;verticalAlign=middle;whiteSpace=wrap;rounded=0;rotation=0;" parent="WIyWlLk6GJQsqaUBKTNV-1" vertex="1">
          <mxGeometry x="2572.43" y="1678.4299999999992" width="60" height="30" as="geometry" />
        </mxCell>
        <mxCell id="KJzYNLKTrp_ooMd6hEDH-72" value="" style="endArrow=classic;html=1;rounded=0;fontStyle=1;endFill=1;startFill=0;exitX=0.534;exitY=-0.021;exitDx=0;exitDy=0;exitPerimeter=0;" parent="WIyWlLk6GJQsqaUBKTNV-1" edge="1">
          <mxGeometry width="50" height="50" relative="1" as="geometry">
            <mxPoint x="2581.5600000000004" y="2306.3199999999997" as="sourcePoint" />
            <mxPoint x="2581.18" y="2030" as="targetPoint" />
          </mxGeometry>
        </mxCell>
        <mxCell id="nr9qznxnuRBBL26ijgo9-5" value="&lt;b&gt;(1,N)&lt;/b&gt;" style="text;html=1;align=center;verticalAlign=middle;whiteSpace=wrap;rounded=0;rotation=0;" parent="WIyWlLk6GJQsqaUBKTNV-1" vertex="1">
          <mxGeometry x="2572.4299395347903" y="2277.9999999999995" width="60" height="30" as="geometry" />
        </mxCell>
        <mxCell id="eXBoB5VEGD14m0D3QJLi-9" value="" style="endArrow=classic;html=1;rounded=0;fontStyle=1;endFill=1;startFill=0;exitX=0.002;exitY=0.437;exitDx=0;exitDy=0;exitPerimeter=0;" parent="WIyWlLk6GJQsqaUBKTNV-1" source="KJzYNLKTrp_ooMd6hEDH-133" edge="1">
          <mxGeometry width="50" height="50" relative="1" as="geometry">
            <mxPoint x="2545.43" y="2344.6300000000006" as="sourcePoint" />
            <mxPoint x="2392.43" y="2343.36" as="targetPoint" />
          </mxGeometry>
        </mxCell>
        <mxCell id="eXBoB5VEGD14m0D3QJLi-10" value="&lt;b&gt;(0,N)&lt;/b&gt;" style="text;html=1;align=center;verticalAlign=middle;whiteSpace=wrap;rounded=0;" parent="WIyWlLk6GJQsqaUBKTNV-1" vertex="1">
          <mxGeometry x="2477.18" y="2341.5" width="60" height="30" as="geometry" />
        </mxCell>
        <mxCell id="eXBoB5VEGD14m0D3QJLi-11" value="" style="endArrow=classic;html=1;rounded=0;fontStyle=1;endFill=1;startFill=0;" parent="WIyWlLk6GJQsqaUBKTNV-1" edge="1">
          <mxGeometry width="50" height="50" relative="1" as="geometry">
            <mxPoint x="2144.87" y="1628.37" as="sourcePoint" />
            <mxPoint x="2536.18" y="1628" as="targetPoint" />
          </mxGeometry>
        </mxCell>
        <mxCell id="eXBoB5VEGD14m0D3QJLi-12" value="" style="endArrow=classic;html=1;rounded=0;fontStyle=1;endFill=1;startFill=0;" parent="WIyWlLk6GJQsqaUBKTNV-1" edge="1">
          <mxGeometry width="50" height="50" relative="1" as="geometry">
            <mxPoint x="2999.04" y="1626.4" as="sourcePoint" />
            <mxPoint x="2616.18" y="1627" as="targetPoint" />
          </mxGeometry>
        </mxCell>
        <mxCell id="eXBoB5VEGD14m0D3QJLi-13" value="&lt;b&gt;Driver&lt;/b&gt;&lt;br&gt;&lt;div&gt;&lt;b&gt;Composition&lt;/b&gt;&lt;/div&gt;" style="rhombus;whiteSpace=wrap;html=1;fontSize=10;" parent="WIyWlLk6GJQsqaUBKTNV-1" vertex="1">
          <mxGeometry x="2536.18" y="1587.4" width="80" height="80" as="geometry" />
        </mxCell>
        <mxCell id="eXBoB5VEGD14m0D3QJLi-14" value="&lt;b&gt;(0,N)&lt;/b&gt;" style="text;html=1;align=center;verticalAlign=middle;whiteSpace=wrap;rounded=0;" parent="WIyWlLk6GJQsqaUBKTNV-1" vertex="1">
          <mxGeometry x="2952.18" y="1600.6000000000001" width="60" height="30" as="geometry" />
        </mxCell>
        <mxCell id="eXBoB5VEGD14m0D3QJLi-15" value="&lt;b&gt;(0,N)&lt;/b&gt;" style="text;html=1;align=center;verticalAlign=middle;whiteSpace=wrap;rounded=0;" parent="WIyWlLk6GJQsqaUBKTNV-1" vertex="1">
          <mxGeometry x="2133.87" y="1603.4" width="60" height="30" as="geometry" />
        </mxCell>
        <mxCell id="eXBoB5VEGD14m0D3QJLi-16" value="" style="endArrow=none;html=1;rounded=0;" parent="WIyWlLk6GJQsqaUBKTNV-1" edge="1">
          <mxGeometry width="50" height="50" relative="1" as="geometry">
            <mxPoint x="3081.5899999999997" y="1965.17" as="sourcePoint" />
            <mxPoint x="3081.5899999999997" y="1865.17" as="targetPoint" />
          </mxGeometry>
        </mxCell>
        <mxCell id="eXBoB5VEGD14m0D3QJLi-17" value="" style="endArrow=none;html=1;rounded=0;strokeWidth=2;" parent="WIyWlLk6GJQsqaUBKTNV-1" edge="1">
          <mxGeometry width="50" height="50" relative="1" as="geometry">
            <mxPoint x="3081.18" y="2220" as="sourcePoint" />
            <mxPoint x="3081.3399999999997" y="2057.17" as="targetPoint" />
          </mxGeometry>
        </mxCell>
        <mxCell id="SAbZ3JcfDOom2dVS9L_e-1" value="" style="endArrow=none;html=1;rounded=0;fontStyle=1;endFill=1;startFill=0;entryX=1.064;entryY=-0.008;entryDx=0;entryDy=0;entryPerimeter=0;fillColor=#dae8fc;strokeColor=#6c8ebf;gradientColor=#7ea6e0;" parent="WIyWlLk6GJQsqaUBKTNV-1" target="SAbZ3JcfDOom2dVS9L_e-5" edge="1">
          <mxGeometry width="50" height="50" relative="1" as="geometry">
            <mxPoint x="1800" y="1519" as="sourcePoint" />
            <mxPoint x="2537.18" y="1519.3" as="targetPoint" />
          </mxGeometry>
        </mxCell>
        <mxCell id="SAbZ3JcfDOom2dVS9L_e-3" value="" style="endArrow=none;html=1;rounded=0;endFill=1;entryX=0.334;entryY=-0.057;entryDx=0;entryDy=0;entryPerimeter=0;startFill=0;fillColor=#dae8fc;strokeColor=#6c8ebf;gradientColor=#7ea6e0;" parent="WIyWlLk6GJQsqaUBKTNV-1" target="lh2_92bgUW_Hdn3y_NVo-3" edge="1">
          <mxGeometry width="50" height="50" relative="1" as="geometry">
            <mxPoint x="1800.0000000000002" y="1518.0300000000002" as="sourcePoint" />
            <mxPoint x="1800.0000000000002" y="1626.0300000000002" as="targetPoint" />
          </mxGeometry>
        </mxCell>
        <mxCell id="SAbZ3JcfDOom2dVS9L_e-4" value="" style="endArrow=classic;html=1;rounded=0;endFill=1;entryX=0.12;entryY=0.021;entryDx=0;entryDy=0;entryPerimeter=0;fillColor=#dae8fc;gradientColor=#7ea6e0;strokeColor=#6c8ebf;" parent="WIyWlLk6GJQsqaUBKTNV-1" edge="1">
          <mxGeometry width="50" height="50" relative="1" as="geometry">
            <mxPoint x="3020" y="1518" as="sourcePoint" />
            <mxPoint x="3019.5699999999997" y="1600.2799999999997" as="targetPoint" />
          </mxGeometry>
        </mxCell>
        <mxCell id="SAbZ3JcfDOom2dVS9L_e-5" value="&lt;b&gt;(0,N)&lt;/b&gt;" style="text;html=1;align=center;verticalAlign=middle;whiteSpace=wrap;rounded=0;" parent="WIyWlLk6GJQsqaUBKTNV-1" vertex="1">
          <mxGeometry x="2980" y="1518" width="38.18" height="22" as="geometry" />
        </mxCell>
        <mxCell id="SAbZ3JcfDOom2dVS9L_e-6" value="(0,N)" style="text;html=1;align=center;verticalAlign=middle;resizable=0;points=[];autosize=1;strokeColor=none;fillColor=none;fontStyle=1" parent="WIyWlLk6GJQsqaUBKTNV-1" vertex="1">
          <mxGeometry x="1796.62" y="1518.0000000000005" width="50" height="30" as="geometry" />
        </mxCell>
        <mxCell id="SAbZ3JcfDOom2dVS9L_e-7" value="" style="endArrow=classic;html=1;rounded=0;fontStyle=1;endFill=1;startFill=0;exitX=0.534;exitY=-0.021;exitDx=0;exitDy=0;exitPerimeter=0;" parent="WIyWlLk6GJQsqaUBKTNV-1" edge="1">
          <mxGeometry width="50" height="50" relative="1" as="geometry">
            <mxPoint x="2580.18" y="1670.6" as="sourcePoint" />
            <mxPoint x="2580.5600000000004" y="1946.9199999999996" as="targetPoint" />
          </mxGeometry>
        </mxCell>
        <mxCell id="SAbZ3JcfDOom2dVS9L_e-8" value="" style="endArrow=none;html=1;rounded=0;fontStyle=1;endFill=1;startFill=0;" parent="WIyWlLk6GJQsqaUBKTNV-1" edge="1">
          <mxGeometry width="50" height="50" relative="1" as="geometry">
            <mxPoint x="3000" y="1671" as="sourcePoint" />
            <mxPoint x="2580" y="1670" as="targetPoint" />
          </mxGeometry>
        </mxCell>
        <mxCell id="SAbZ3JcfDOom2dVS9L_e-10" value="&lt;b&gt;Employee&lt;/b&gt;&lt;div&gt;&lt;b&gt;Car&lt;/b&gt;&lt;/div&gt;" style="rhombus;whiteSpace=wrap;html=1;fontSize=10;" parent="WIyWlLk6GJQsqaUBKTNV-1" vertex="1">
          <mxGeometry x="2537.18" y="1477.3000000000002" width="80" height="80" as="geometry" />
        </mxCell>
        <mxCell id="1eoyuyn6vY5eEdokmfbE-0" value="Šifra osnova oslobođenja PDV-a" style="text;html=1;align=center;verticalAlign=middle;whiteSpace=wrap;rounded=0;" vertex="1" parent="WIyWlLk6GJQsqaUBKTNV-1">
          <mxGeometry x="1400" y="827" width="80" height="60" as="geometry" />
        </mxCell>
        <mxCell id="1eoyuyn6vY5eEdokmfbE-1" value="Broj rešenja o oslobođenju PDV-a" style="text;html=1;align=center;verticalAlign=middle;whiteSpace=wrap;rounded=0;" vertex="1" parent="WIyWlLk6GJQsqaUBKTNV-1">
          <mxGeometry x="1723.62" y="825" width="80" height="60" as="geometry" />
        </mxCell>
      </root>
    </mxGraphModel>
  </diagram>
</mxfile>
